<?xml version="1.0" encoding="UTF-8"?>
<svg xmlns="http://www.w3.org/2000/svg" viewBox="0 0 1254 1254">

    <path fill="none" fill-rule="evenodd" stroke="#0D0D0D" stroke-width="15.0" stroke-linejoin="round" stroke-linecap="round" d="M 481,276 L 310,392 L 300,403 L 294,417 L 293,852 L 296,865 L 305,880 L 313,887 L 335,896 L 762,948 L 789,949 L 805,945 L 827,929 L 944,779 L 958,746 L 961,698 L 961,351 L 956,329 L 941,311 L 922,303 L 531,270 L 502,270 Z M 337,431 L 346,427 L 773,466 L 785,468 L 797,478 L 801,490 L 801,889 L 797,900 L 792,905 L 784,908 L 774,908 L 344,856 L 335,849 L 330,839 L 330,442 Z M 376,387 L 376,383 L 388,373 L 496,300 L 508,296 L 901,328 L 911,330 L 915,335 L 914,341 L 821,421 L 807,429 L 775,428 L 386,393 L 379,391 Z M 614,575 L 601,582 L 589,594 L 579,614 L 577,642 L 582,661 L 588,673 L 606,693 L 623,703 L 636,707 L 685,712 L 692,715 L 702,724 L 707,741 L 702,754 L 691,762 L 676,762 L 592,752 L 586,753 L 582,759 L 582,788 L 589,795 L 685,806 L 696,806 L 712,802 L 723,796 L 735,785 L 747,761 L 749,749 L 748,731 L 738,704 L 724,687 L 706,675 L 686,669 L 640,665 L 631,661 L 621,650 L 618,635 L 623,623 L 635,615 L 730,624 L 737,623 L 741,617 L 740,586 L 734,581 L 646,572 L 626,572 Z M 391,553 L 384,560 L 380,571 L 380,764 L 382,769 L 386,772 L 418,775 L 423,769 L 423,595 L 433,594 L 481,599 L 498,605 L 507,615 L 511,625 L 512,782 L 518,787 L 551,789 L 554,785 L 554,627 L 548,605 L 540,591 L 523,573 L 499,560 L 406,549 Z"/>
</svg>